<svg width="99" height="20" viewBox="0 0 99 20" fill="none" xmlns="http://www.w3.org/2000/svg">
<path d="M10 0L12.2451 6.90983H19.5106L13.6327 11.1803L15.8779 18.0902L10 13.8197L4.12215 18.0902L6.36729 11.1803L0.489435 6.90983H7.75486L10 0Z" fill="#FFD12E"/>
<path d="M29 0L31.2451 6.90983H38.5106L32.6327 11.1803L34.8779 18.0902L29 13.8197L23.1221 18.0902L25.3673 11.1803L19.4894 6.90983H26.7549L29 0Z" fill="#FFD12E"/>
<path d="M49 0L51.2451 6.90983H58.5106L52.6327 11.1803L54.8779 18.0902L49 13.8197L43.1221 18.0902L45.3673 11.1803L39.4894 6.90983H46.7549L49 0Z" fill="#FFD12E"/>
<path d="M69 0L71.2451 6.90983H78.5106L72.6327 11.1803L74.8779 18.0902L69 13.8197L63.1221 18.0902L65.3673 11.1803L59.4894 6.90983H66.7549L69 0Z" fill="#FFD12E"/>
<path d="M89 0L91.2451 6.90983H98.5106L92.6327 11.1803L94.8779 18.0902L89 13.8197L83.1221 18.0902L85.3673 11.1803L79.4894 6.90983H86.7549L89 0Z" fill="#FFD12E"/>
</svg>
