<svg width="36" height="30" viewBox="0 0 36 30" fill="none" xmlns="http://www.w3.org/2000/svg">
<path d="M28 1L29 1L29 -2.35026e-08L28 -4.87118e-07L28 1ZM27.2929 29.7071C27.6834 30.0976 28.3166 30.0976 28.7071 29.7071L35.0711 23.3431C35.4616 22.9526 35.4616 22.3195 35.0711 21.9289C34.6805 21.5384 34.0474 21.5384 33.6569 21.9289L28 27.5858L22.3431 21.9289C21.9526 21.5384 21.3195 21.5384 20.9289 21.9289C20.5384 22.3195 20.5384 22.9526 20.9289 23.3431L27.2929 29.7071ZM-1.88102e-06 2L28 2L28 -4.87118e-07L-8.695e-07 8.19434e-07L-1.88102e-06 2ZM27 0.999999L27 29H29L29 1L27 0.999999Z" fill="black"/>
</svg>
